<?xml version="1.0" standalone="no"?>
<!DOCTYPE svg PUBLIC "-//W3C//DTD SVG 20010904//EN"
 "http://www.w3.org/TR/2001/REC-SVG-20010904/DTD/svg10.dtd">
<svg version="1.0" xmlns="http://www.w3.org/2000/svg"
 width="1024.000000pt" height="1024.000000pt" viewBox="0 0 1024.000000 1024.000000"
 preserveAspectRatio="xMidYMid meet">

<g transform="translate(0.000000,1024.000000) scale(0.100000,-0.100000)"
fill="#000000" stroke="none">
<path d="M3146 6830 c-41 -13 -84 -58 -96 -99 -15 -54 3 -105 50 -142 l39 -32
-30 -28 c-33 -31 -33 -57 0 -91 14 -16 15 -39 8 -220 l-8 -203 -30 -25 c-36
-30 -37 -51 -4 -94 l24 -32 -9 -485 c-5 -266 -10 -567 -10 -669 l0 -185 -30
-17 c-38 -22 -47 -44 -26 -67 12 -13 16 -37 16 -88 0 -85 -33 -158 -93 -206
-31 -26 -49 -32 -103 -35 -54 -4 -68 -8 -84 -30 -11 -13 -20 -40 -20 -58 l0
-34 445 0 445 0 0 44 c0 55 -24 76 -88 76 -85 0 -164 69 -192 170 -13 46 -13
147 0 155 18 11 10 53 -14 72 -23 18 -24 26 -30 169 -3 82 -8 336 -11 564 -3
228 -8 463 -11 521 -6 103 -5 106 20 136 34 40 33 61 -3 92 l-30 26 -11 203
c-12 201 -12 204 9 226 35 37 29 64 -22 99 -18 12 -17 15 17 41 66 50 81 107
47 174 -30 58 -103 90 -165 72z"/>
<path d="M7145 6438 c-16 -5 -57 -14 -90 -21 -72 -15 -84 -41 -21 -44 22 -1
43 -8 48 -15 10 -15 6 -613 -4 -623 -4 -4 -22 -10 -40 -14 -19 -4 -34 -14 -36
-24 -3 -15 9 -17 127 -17 124 0 131 1 131 20 0 13 -7 20 -19 20 -53 0 -51 -15
-51 365 0 195 -3 356 -7 358 -5 2 -21 0 -38 -5z"/>
<path d="M5353 6412 c-29 -10 -70 -31 -92 -46 -157 -109 -200 -374 -89 -549
51 -80 163 -156 230 -157 17 0 45 -15 75 -42 74 -64 163 -101 242 -102 86 -1
121 9 121 34 0 18 -5 19 -38 14 -45 -7 -115 19 -187 71 l-46 32 48 18 c160 61
259 284 209 471 -30 114 -92 191 -196 245 -63 32 -203 37 -277 11z m206 -52
c79 -40 132 -125 151 -245 27 -171 -35 -342 -143 -394 -53 -26 -99 -26 -152
-2 -92 42 -147 116 -172 234 -59 281 117 509 316 407z"/>
<path d="M2603 6400 c-39 -11 -133 -44 -210 -74 -130 -51 -247 -81 -338 -88
-39 -3 -40 -2 -37 28 3 25 -3 36 -25 54 -72 56 -170 -42 -118 -118 9 -13 39
-28 70 -38 51 -14 55 -17 49 -40 -4 -13 -1 -37 6 -53 11 -27 -2 -63 -181 -497
-106 -258 -209 -512 -230 -564 l-38 -95 -40 -3 c-25 -2 -41 -8 -41 -16 0 -26
78 -132 134 -183 31 -29 89 -68 129 -88 114 -56 183 -70 332 -69 115 0 139 4
210 28 148 51 292 162 345 267 27 52 26 57 -17 61 l-36 3 -104 250 c-57 138
-114 277 -128 310 -13 33 -71 175 -128 316 -93 226 -103 258 -91 274 17 23 18
57 3 72 -8 8 1 13 37 18 27 3 130 20 229 38 305 54 475 42 608 -43 33 -20 49
-26 52 -17 2 6 6 64 8 128 l5 117 -56 17 c-37 11 -104 18 -192 21 -113 3 -147
1 -207 -16z m-563 -940 l0 -540 -221 0 c-173 0 -220 3 -216 13 3 6 100 244
216 528 116 284 211 522 211 528 0 6 2 11 5 11 3 0 5 -243 5 -540z m121 333
c45 -109 142 -346 216 -528 74 -181 137 -334 139 -340 3 -7 -72 -9 -216 -7
l-220 3 -1 447 c0 246 -2 489 -4 541 -2 51 -1 91 1 88 3 -3 41 -94 85 -204z"/>
<path d="M3445 6410 c-22 -5 -58 -14 -80 -22 l-40 -13 -1 -123 c-1 -67 1 -124
5 -126 4 -3 41 13 83 34 160 80 298 87 603 31 88 -16 181 -32 207 -35 45 -7
47 -8 36 -31 -9 -19 -7 -29 6 -49 16 -25 12 -37 -209 -576 -124 -303 -230
-560 -235 -571 -8 -14 -21 -19 -50 -19 -38 0 -39 -1 -30 -26 6 -14 23 -44 39
-67 250 -364 883 -351 1103 22 37 62 36 71 -11 71 -34 0 -40 4 -52 33 -7 17
-41 102 -77 187 -35 85 -133 325 -218 533 -154 377 -154 378 -138 409 12 23
13 36 5 54 -9 22 -7 24 44 39 58 17 85 43 85 85 0 58 -66 102 -120 80 -28 -12
-35 -24 -42 -76 -3 -20 -5 -20 -90 -8 -48 7 -120 25 -160 40 -349 126 -353
127 -493 130 -71 2 -148 -1 -170 -6z m1081 -860 c95 -234 193 -474 218 -533
32 -78 41 -107 30 -103 -9 3 -110 6 -225 6 l-209 0 1 543 c0 298 3 535 6 527
3 -8 84 -206 179 -440z m-226 -100 l0 -530 -220 0 c-217 0 -221 0 -210 20 9
16 305 740 398 972 15 37 28 68 30 68 1 0 2 -238 2 -530z"/>
<path d="M7380 6400 c-27 -27 -25 -62 3 -88 29 -28 57 -28 91 -1 48 38 20 109
-44 109 -17 0 -39 -9 -50 -20z"/>
<path d="M7722 6298 c-20 -45 -82 -108 -107 -108 -9 0 -15 -10 -15 -25 0 -23
4 -25 41 -25 l40 0 -4 -167 c-4 -195 1 -234 38 -273 46 -48 102 -46 187 7 52
32 43 53 -19 42 -32 -6 -53 -5 -72 4 l-26 12 -3 187 -2 187 67 3 c62 3 68 5
71 26 3 21 0 22 -67 22 l-71 0 0 75 c0 68 -2 75 -20 75 -13 0 -25 -13 -38 -42z"/>
<path d="M5980 6184 c-25 -7 -57 -13 -72 -13 -21 -1 -28 -6 -28 -20 0 -16 8
-20 38 -23 l37 -3 5 -185 c5 -201 10 -220 67 -257 56 -37 183 -9 234 53 13 16
14 13 19 -27 4 -37 8 -44 25 -41 11 2 40 5 65 8 74 9 90 14 90 29 0 10 -10 15
-28 15 -51 0 -52 7 -52 252 0 125 -3 228 -7 228 -5 0 -48 -9 -98 -19 -66 -13
-91 -23 -93 -35 -3 -13 5 -16 38 -16 55 0 60 -17 60 -191 l0 -139 -32 -20
c-86 -53 -158 -42 -177 27 -6 21 -11 118 -11 216 0 199 6 186 -80 161z"/>
<path d="M6620 6178 c-51 -26 -90 -78 -90 -119 0 -31 3 -34 46 -43 31 -7 31
-7 37 41 5 49 40 93 73 93 38 0 85 -31 99 -64 20 -47 20 -106 0 -106 -33 0
-169 -50 -206 -76 -49 -34 -69 -70 -69 -125 0 -54 50 -108 102 -110 68 -2 94
3 143 26 44 21 51 22 58 9 5 -9 25 -22 44 -30 32 -14 38 -13 79 6 24 12 44 26
44 30 0 12 -21 24 -43 25 -10 1 -23 8 -28 16 -5 8 -9 84 -9 169 -1 189 -13
229 -82 260 -60 27 -142 26 -198 -2z m168 -405 c-17 -21 -71 -43 -103 -43 -34
0 -75 42 -75 76 0 38 57 88 127 111 l58 20 3 -75 c2 -50 -1 -79 -10 -89z"/>
<path d="M7380 6175 c-47 -12 -84 -25 -82 -29 1 -3 2 -11 2 -16 0 -6 10 -8 24
-4 13 3 34 1 45 -6 20 -10 21 -18 21 -195 0 -172 -1 -185 -19 -195 -11 -5 -29
-10 -40 -10 -14 0 -21 -6 -21 -20 0 -19 7 -20 125 -20 118 0 125 1 125 20 0
14 -7 20 -23 20 -45 0 -47 11 -47 252 0 176 -3 228 -12 227 -7 -1 -51 -12 -98
-24z"/>
<path d="M7980 6171 c0 -13 9 -21 30 -26 17 -4 34 -14 39 -23 5 -9 46 -111 91
-227 91 -232 90 -222 38 -332 -23 -49 -30 -51 -58 -23 -40 40 -110 13 -110
-42 0 -28 40 -58 77 -58 75 0 119 47 167 179 88 245 191 498 208 514 11 9 29
17 39 17 12 0 19 7 19 20 0 19 -7 20 -100 20 -93 0 -100 -1 -100 -20 0 -15 7
-20 25 -20 14 0 28 -7 32 -16 3 -8 -18 -83 -48 -165 l-53 -150 -59 151 c-32
82 -56 157 -53 165 3 9 18 15 36 15 23 0 30 4 30 20 0 19 -7 20 -125 20 -117
0 -125 -1 -125 -19z"/>
<path d="M7420 5481 c-8 -5 -42 -14 -75 -21 -82 -15 -85 -17 -79 -34 3 -9 21
-16 42 -18 l37 -3 3 -315 c2 -287 1 -316 -15 -327 -9 -7 -27 -13 -40 -13 -16
0 -23 -6 -23 -19 0 -18 9 -19 130 -19 118 0 130 2 130 18 0 12 -11 20 -35 24
l-35 7 0 202 c-1 381 -5 520 -15 523 -5 2 -17 -1 -25 -5z"/>
<path d="M5140 5420 c0 -16 7 -20 34 -20 67 0 67 2 64 -328 l-3 -297 -47 -14
c-33 -10 -48 -20 -48 -32 0 -16 21 -17 270 -15 148 1 271 4 273 6 3 3 8 49 12
103 6 84 5 97 -9 97 -9 0 -24 -21 -37 -50 -12 -28 -35 -62 -51 -75 -27 -23
-38 -25 -128 -25 -88 0 -100 2 -110 19 -14 26 -14 556 0 582 7 11 26 21 50 25
30 5 40 11 40 25 0 18 -10 19 -155 19 -148 0 -155 -1 -155 -20z"/>
<path d="M5938 5225 c-101 -32 -179 -172 -165 -295 7 -58 39 -135 70 -169 50
-55 159 -77 230 -48 36 16 107 89 107 111 0 28 -22 28 -49 2 -38 -36 -92 -50
-136 -36 -63 21 -115 103 -115 184 l0 28 153 -3 152 -4 3 30 c8 66 -41 160
-97 190 -44 22 -101 26 -153 10z m91 -50 c29 -14 61 -76 61 -115 0 -19 -7 -20
-105 -20 -77 0 -105 3 -105 13 0 36 24 89 51 111 35 30 58 32 98 11z"/>
<path d="M6402 5222 c-61 -22 -87 -44 -113 -94 -38 -74 -15 -167 53 -215 l31
-22 -47 -32 c-55 -39 -59 -63 -17 -108 l29 -31 -44 -44 c-37 -37 -44 -49 -44
-83 0 -82 75 -132 195 -133 88 0 131 12 192 53 62 42 93 100 93 178 0 37 -5
61 -14 69 -9 6 -76 16 -158 21 -118 8 -146 13 -162 29 -18 18 -18 20 -2 44 14
23 23 26 74 26 68 0 145 34 177 77 30 42 33 133 6 178 l-21 36 62 -2 c62 -3
63 -2 63 24 l0 27 -115 4 c-63 2 -131 6 -150 10 -23 4 -53 0 -88 -12z m133
-62 c24 -26 30 -40 33 -94 8 -117 -53 -175 -137 -131 -60 30 -75 165 -25 224
36 43 88 43 129 1z m17 -473 c43 -2 84 -10 93 -17 37 -31 -1 -110 -68 -140
-77 -36 -185 -20 -221 31 -22 32 -20 81 4 111 16 22 26 25 67 22 26 -2 83 -5
125 -7z"/>
<path d="M6936 5228 c-78 -17 -136 -75 -136 -136 0 -25 5 -33 25 -38 39 -10
52 1 58 48 8 57 38 82 90 75 48 -7 74 -29 88 -77 20 -65 11 -81 -51 -96 -30
-8 -84 -29 -120 -47 -74 -37 -110 -81 -110 -136 0 -45 32 -98 66 -111 45 -17
116 -11 172 15 l52 24 25 -24 c37 -38 97 -33 154 11 10 8 -24 34 -44 34 -13 0
-26 7 -29 16 -3 9 -6 84 -6 167 0 174 -13 219 -71 254 -40 24 -108 33 -163 21z
m132 -340 l-3 -82 -40 -23 c-53 -30 -90 -29 -122 3 -20 20 -24 31 -19 57 9 44
41 73 112 102 32 14 63 25 67 25 4 0 7 -37 5 -82z"/>
<path d="M5265 4462 c-105 -51 -150 -160 -106 -257 25 -57 78 -99 184 -148
135 -63 178 -127 144 -210 -53 -126 -258 -83 -297 63 -8 29 -16 40 -27 38 -14
-2 -16 -16 -14 -83 1 -44 7 -85 12 -91 16 -19 127 -45 195 -46 162 -1 273 127
235 270 -17 63 -67 106 -196 167 -90 42 -119 60 -135 87 -42 69 -13 157 59
179 87 26 169 -23 197 -117 25 -87 42 -70 40 41 l-1 95 -35 11 c-19 6 -75 13
-125 15 -75 4 -97 2 -130 -14z"/>
<path d="M7212 4457 c-27 -29 -28 -47 -1 -81 26 -33 68 -34 97 -3 27 29 28 61
2 87 -27 27 -71 26 -98 -3z"/>
<path d="M5847 4256 c-102 -28 -170 -134 -171 -267 -1 -65 3 -84 29 -134 40
-76 95 -117 169 -123 29 -2 70 1 89 7 38 13 117 91 117 115 0 27 -19 27 -47 1
-54 -50 -141 -50 -194 1 -29 28 -59 105 -59 151 l0 23 155 0 155 0 0 40 c0
134 -114 220 -243 186z m92 -52 c26 -19 51 -71 51 -109 l0 -25 -105 0 c-114 0
-112 -1 -93 62 22 74 94 109 147 72z"/>
<path d="M6265 4255 c-22 -7 -57 -16 -77 -20 -46 -7 -53 -35 -10 -35 50 0 52
-10 52 -206 0 -198 -4 -214 -56 -214 -17 0 -24 -5 -24 -20 0 -19 7 -20 130
-20 123 0 130 1 130 20 0 14 -7 20 -21 20 -11 0 -29 5 -40 10 -18 10 -19 23
-19 169 0 145 2 161 21 185 23 29 55 33 85 11 27 -20 61 -18 74 4 44 83 -60
143 -131 75 -16 -15 -31 -36 -35 -46 -11 -35 -24 -18 -24 32 0 28 -3 50 -7 49
-5 0 -26 -7 -48 -14z"/>
<path d="M7627 4259 c-56 -13 -90 -33 -130 -78 -65 -72 -85 -201 -47 -304 60
-161 253 -198 359 -70 34 42 35 42 21 63 -8 12 -12 11 -32 -7 -51 -46 -113
-56 -168 -28 -107 55 -128 290 -32 365 50 40 142 9 142 -49 0 -37 12 -51 41
-51 88 0 84 108 -6 145 -45 19 -105 25 -148 14z"/>
<path d="M8098 4260 c-103 -19 -188 -141 -188 -271 0 -231 236 -346 378 -184
54 61 35 97 -24 46 -35 -31 -53 -36 -109 -32 -70 6 -121 69 -132 161 l-6 51
145 -2 c80 -1 150 1 157 6 17 10 7 76 -21 133 -34 72 -112 108 -200 92z m81
-66 c27 -22 51 -75 51 -111 0 -10 -28 -13 -105 -13 -119 0 -120 1 -89 80 28
69 90 88 143 44z"/>
<path d="M8550 4260 c-91 -12 -132 -55 -138 -143 -4 -57 -2 -66 24 -96 18 -21
62 -49 121 -77 71 -33 95 -49 103 -69 22 -58 -20 -105 -92 -105 -51 0 -93 32
-113 84 -28 72 -45 60 -45 -29 0 -87 2 -89 107 -100 67 -8 120 4 168 37 46 31
65 68 65 126 0 69 -25 96 -135 147 -50 23 -99 50 -108 59 -27 27 -22 81 9 105
63 49 145 4 168 -91 3 -16 13 -28 20 -28 11 0 15 19 18 78 2 42 1 80 -2 84 -9
12 -121 24 -170 18z"/>
<path d="M7213 4236 c-64 -16 -83 -25 -83 -38 0 -14 6 -16 30 -12 57 12 60 1
60 -202 0 -171 -1 -184 -19 -194 -11 -5 -29 -10 -40 -10 -14 0 -21 -6 -21 -20
0 -19 7 -20 130 -20 123 0 130 1 130 20 0 15 -7 20 -28 20 -51 0 -52 7 -52
252 0 177 -3 228 -12 226 -7 0 -50 -10 -95 -22z"/>
<path d="M6570 4233 c1 -10 15 -27 32 -38 28 -17 44 -49 123 -243 77 -191 93
-222 110 -220 15 2 39 50 111 228 83 202 95 227 123 240 17 8 31 23 31 33 0
15 -11 17 -100 17 -93 0 -100 -1 -100 -20 0 -14 7 -20 23 -20 51 -1 53 -12 18
-107 -18 -48 -42 -116 -54 -150 -12 -35 -24 -63 -27 -63 -5 0 -111 266 -118
296 -2 7 11 15 27 19 22 5 31 13 31 26 0 18 -8 19 -115 19 -103 0 -115 -2
-115 -17z"/>
<path d="M2550 3920 c-87 -12 -135 -54 -160 -137 -22 -74 -18 -76 133 -69 72
3 433 6 801 6 l669 0 -7 43 c-9 55 -51 115 -101 141 -39 21 -52 21 -665 22
-344 1 -645 -2 -670 -6z"/>
</g>
</svg>
